<svg width="256" height="96" viewBox="0 0 256 96" fill="none" xmlns="http://www.w3.org/2000/svg">
<rect width="256" height="96" fill="white"/>
<g filter="url(#filter0_d_215_1073)">
<rect x="11" y="8" width="80" height="80" rx="12" fill="#F0F5FF"/>
</g>
<path d="M121.478 51.36C119.486 51.36 117.758 51.048 116.294 50.424C114.854 49.8 113.75 48.984 112.982 47.976C112.214 46.944 111.806 45.84 111.758 44.664C111.758 44.472 111.83 44.304 111.974 44.16C112.142 43.992 112.334 43.908 112.55 43.908H114.386C114.842 43.908 115.154 44.148 115.322 44.628C115.538 45.636 116.15 46.5 117.158 47.22C118.19 47.94 119.63 48.3 121.478 48.3C123.47 48.3 124.97 47.952 125.978 47.256C126.986 46.536 127.49 45.54 127.49 44.268C127.49 43.452 127.238 42.792 126.734 42.288C126.254 41.784 125.534 41.34 124.574 40.956C123.614 40.572 122.174 40.092 120.254 39.516C118.382 38.988 116.894 38.424 115.79 37.824C114.686 37.224 113.858 36.48 113.306 35.592C112.754 34.704 112.478 33.588 112.478 32.244C112.478 30.948 112.826 29.784 113.522 28.752C114.242 27.72 115.262 26.916 116.582 26.34C117.902 25.74 119.474 25.44 121.298 25.44C123.17 25.44 124.778 25.776 126.122 26.448C127.466 27.096 128.486 27.924 129.182 28.932C129.878 29.94 130.25 30.948 130.298 31.956C130.298 32.148 130.226 32.316 130.082 32.46C129.962 32.604 129.782 32.676 129.542 32.676H127.634C127.13 32.676 126.818 32.448 126.698 31.992C126.554 30.984 125.99 30.156 125.006 29.508C124.022 28.836 122.786 28.5 121.298 28.5C119.666 28.5 118.382 28.812 117.446 29.436C116.51 30.06 116.042 30.984 116.042 32.208C116.042 33.024 116.258 33.696 116.69 34.224C117.146 34.752 117.83 35.22 118.742 35.628C119.654 36.012 120.986 36.456 122.738 36.96C124.778 37.512 126.386 38.088 127.562 38.688C128.738 39.264 129.614 39.996 130.19 40.884C130.766 41.748 131.054 42.852 131.054 44.196C131.054 46.428 130.19 48.18 128.462 49.452C126.734 50.724 124.406 51.36 121.478 51.36ZM141.641 51C141.401 51 141.197 50.928 141.029 50.784C140.885 50.616 140.813 50.412 140.813 50.172V26.664C140.813 26.4 140.885 26.196 141.029 26.052C141.197 25.884 141.401 25.8 141.641 25.8H143.477C143.741 25.8 143.945 25.884 144.089 26.052C144.257 26.196 144.341 26.4 144.341 26.664V36.6H156.725V26.664C156.725 26.4 156.797 26.196 156.941 26.052C157.109 25.884 157.313 25.8 157.553 25.8H159.389C159.653 25.8 159.857 25.884 160.001 26.052C160.169 26.196 160.253 26.4 160.253 26.664V50.172C160.253 50.412 160.169 50.616 160.001 50.784C159.833 50.928 159.629 51 159.389 51H157.553C157.313 51 157.109 50.928 156.941 50.784C156.797 50.616 156.725 50.412 156.725 50.172V39.84H144.341V50.172C144.341 50.412 144.257 50.616 144.089 50.784C143.921 50.928 143.717 51 143.477 51H141.641ZM172.38 51C172.14 51 171.936 50.928 171.768 50.784C171.624 50.616 171.552 50.412 171.552 50.172V26.664C171.552 26.4 171.624 26.196 171.768 26.052C171.936 25.884 172.14 25.8 172.38 25.8H181.164C183.924 25.8 186.084 26.448 187.644 27.744C189.204 29.04 189.984 30.912 189.984 33.36C189.984 35.184 189.528 36.684 188.616 37.86C187.728 39.036 186.468 39.852 184.836 40.308L190.38 49.884C190.452 50.028 190.488 50.16 190.488 50.28C190.488 50.472 190.404 50.64 190.236 50.784C190.092 50.928 189.924 51 189.732 51H188.004C187.644 51 187.356 50.916 187.14 50.748C186.948 50.58 186.768 50.34 186.6 50.028L181.38 40.884H175.08V50.172C175.08 50.412 174.996 50.616 174.828 50.784C174.66 50.928 174.456 51 174.216 51H172.38ZM181.02 37.824C184.596 37.824 186.384 36.324 186.384 33.324C186.384 30.324 184.596 28.824 181.02 28.824H175.08V37.824H181.02ZM201.01 51C200.77 51 200.566 50.928 200.398 50.784C200.254 50.616 200.182 50.412 200.182 50.172V26.664C200.182 26.4 200.254 26.196 200.398 26.052C200.566 25.884 200.77 25.8 201.01 25.8H215.878C216.118 25.8 216.31 25.884 216.454 26.052C216.622 26.196 216.706 26.4 216.706 26.664V28.032C216.706 28.272 216.634 28.476 216.49 28.644C216.346 28.788 216.142 28.86 215.878 28.86H203.638V36.744H215.086C215.326 36.744 215.518 36.828 215.662 36.996C215.83 37.14 215.914 37.344 215.914 37.608V38.94C215.914 39.18 215.83 39.384 215.662 39.552C215.518 39.696 215.326 39.768 215.086 39.768H203.638V47.94H216.166C216.43 47.94 216.634 48.012 216.778 48.156C216.922 48.3 216.994 48.504 216.994 48.768V50.172C216.994 50.412 216.91 50.616 216.742 50.784C216.598 50.928 216.406 51 216.166 51H201.01ZM227.882 51C227.642 51 227.438 50.928 227.27 50.784C227.126 50.616 227.054 50.412 227.054 50.172V26.664C227.054 26.4 227.126 26.196 227.27 26.052C227.438 25.884 227.642 25.8 227.882 25.8H242.75C242.99 25.8 243.182 25.884 243.326 26.052C243.494 26.196 243.578 26.4 243.578 26.664V28.032C243.578 28.272 243.506 28.476 243.362 28.644C243.218 28.788 243.014 28.86 242.75 28.86H230.51V36.744H241.958C242.198 36.744 242.39 36.828 242.534 36.996C242.702 37.14 242.786 37.344 242.786 37.608V38.94C242.786 39.18 242.702 39.384 242.534 39.552C242.39 39.696 242.198 39.768 241.958 39.768H230.51V47.94H243.038C243.302 47.94 243.506 48.012 243.65 48.156C243.794 48.3 243.866 48.504 243.866 48.768V50.172C243.866 50.412 243.782 50.616 243.614 50.784C243.47 50.928 243.278 51 243.038 51H227.882Z" fill="#0248AC"/>
<path d="M164.962 75C164.855 75 164.764 74.9627 164.69 74.888C164.615 74.8133 164.578 74.7227 164.578 74.616V65.768H161.618C161.511 65.768 161.42 65.7307 161.346 65.656C161.271 65.5813 161.234 65.4907 161.234 65.384V64.2C161.234 64.0827 161.266 63.9867 161.33 63.912C161.404 63.8373 161.5 63.8 161.618 63.8H169.778C169.895 63.8 169.991 63.8373 170.066 63.912C170.14 63.9867 170.178 64.0827 170.178 64.2V65.384C170.178 65.4907 170.14 65.5813 170.066 65.656C169.991 65.7307 169.895 65.768 169.778 65.768H166.834V74.616C166.834 74.7227 166.796 74.8133 166.722 74.888C166.647 74.9627 166.551 75 166.434 75H164.962ZM180.745 75.16C179.305 75.16 178.185 74.792 177.385 74.056C176.585 73.32 176.185 72.2053 176.185 70.712V64.2C176.185 64.0827 176.217 63.9867 176.281 63.912C176.356 63.8373 176.452 63.8 176.569 63.8H178.025C178.142 63.8 178.233 63.8373 178.297 63.912C178.372 63.9867 178.409 64.0827 178.409 64.2V70.712C178.409 71.5653 178.612 72.2107 179.017 72.648C179.422 73.0747 179.998 73.288 180.745 73.288C181.492 73.288 182.062 73.0747 182.457 72.648C182.862 72.2107 183.065 71.5653 183.065 70.712V64.2C183.065 64.0827 183.102 63.9867 183.177 63.912C183.252 63.8373 183.348 63.8 183.465 63.8H184.905C185.022 63.8 185.113 63.8373 185.177 63.912C185.252 63.9867 185.289 64.0827 185.289 64.2V70.712C185.289 72.2053 184.889 73.32 184.089 74.056C183.3 74.792 182.185 75.16 180.745 75.16ZM195.015 75C194.909 75 194.818 74.9627 194.743 74.888C194.669 74.8133 194.631 74.7227 194.631 74.616V65.768H191.671C191.565 65.768 191.474 65.7307 191.399 65.656C191.325 65.5813 191.287 65.4907 191.287 65.384V64.2C191.287 64.0827 191.319 63.9867 191.383 63.912C191.458 63.8373 191.554 63.8 191.671 63.8H199.831C199.949 63.8 200.045 63.8373 200.119 63.912C200.194 63.9867 200.231 64.0827 200.231 64.2V65.384C200.231 65.4907 200.194 65.5813 200.119 65.656C200.045 65.7307 199.949 65.768 199.831 65.768H196.887V74.616C196.887 74.7227 196.85 74.8133 196.775 74.888C196.701 74.9627 196.605 75 196.487 75H195.015ZM210.436 75.16C208.985 75.16 207.854 74.792 207.044 74.056C206.233 73.32 205.806 72.2267 205.764 70.776C205.753 70.4667 205.748 70.0133 205.748 69.416C205.748 68.808 205.753 68.3493 205.764 68.04C205.806 66.6213 206.244 65.5333 207.076 64.776C207.908 64.0187 209.028 63.64 210.436 63.64C211.844 63.64 212.964 64.0187 213.796 64.776C214.638 65.5333 215.081 66.6213 215.124 68.04C215.145 68.6587 215.156 69.1173 215.156 69.416C215.156 69.704 215.145 70.1573 215.124 70.776C215.07 72.2267 214.638 73.32 213.828 74.056C213.017 74.792 211.886 75.16 210.436 75.16ZM210.436 73.32C211.15 73.32 211.721 73.1067 212.148 72.68C212.574 72.2427 212.804 71.5813 212.836 70.696C212.857 70.056 212.868 69.624 212.868 69.4C212.868 69.1547 212.857 68.7227 212.836 68.104C212.804 67.2187 212.574 66.5627 212.148 66.136C211.721 65.6987 211.15 65.48 210.436 65.48C209.732 65.48 209.166 65.6987 208.74 66.136C208.313 66.5627 208.084 67.2187 208.052 68.104C208.041 68.4133 208.036 68.8453 208.036 69.4C208.036 69.944 208.041 70.376 208.052 70.696C208.084 71.5813 208.308 72.2427 208.724 72.68C209.15 73.1067 209.721 73.32 210.436 73.32ZM222.121 75C222.014 75 221.923 74.9627 221.849 74.888C221.774 74.8133 221.737 74.7227 221.737 74.616V64.2C221.737 64.0827 221.769 63.9867 221.833 63.912C221.907 63.8373 222.003 63.8 222.121 63.8H226.265C227.566 63.8 228.585 64.104 229.321 64.712C230.067 65.32 230.441 66.184 230.441 67.304C230.441 68.0827 230.249 68.7387 229.865 69.272C229.491 69.7947 228.969 70.1733 228.297 70.408L230.633 74.488C230.665 74.552 230.681 74.6107 230.681 74.664C230.681 74.76 230.643 74.84 230.569 74.904C230.505 74.968 230.43 75 230.345 75H228.889C228.718 75 228.585 74.9627 228.489 74.888C228.403 74.8133 228.323 74.7067 228.249 74.568L226.185 70.776H223.961V74.616C223.961 74.7227 223.923 74.8133 223.849 74.888C223.785 74.9627 223.694 75 223.577 75H222.121ZM226.217 68.968C226.857 68.968 227.337 68.824 227.657 68.536C227.987 68.248 228.153 67.832 228.153 67.288C228.153 66.744 227.987 66.3227 227.657 66.024C227.337 65.7253 226.857 65.576 226.217 65.576H223.961V68.968H226.217ZM240.87 75.16C239.921 75.16 239.105 75.016 238.422 74.728C237.74 74.44 237.222 74.0613 236.87 73.592C236.518 73.1227 236.332 72.616 236.31 72.072C236.31 71.976 236.342 71.896 236.406 71.832C236.47 71.768 236.55 71.736 236.646 71.736H238.07C238.198 71.736 238.294 71.7627 238.358 71.816C238.433 71.8587 238.502 71.9333 238.566 72.04C238.673 72.4027 238.918 72.7067 239.302 72.952C239.686 73.1973 240.209 73.32 240.87 73.32C241.628 73.32 242.198 73.1973 242.582 72.952C242.966 72.696 243.158 72.344 243.158 71.896C243.158 71.5973 243.057 71.352 242.854 71.16C242.662 70.968 242.369 70.8027 241.974 70.664C241.59 70.5253 241.014 70.3547 240.246 70.152C238.988 69.8533 238.065 69.4587 237.478 68.968C236.902 68.4667 236.614 67.7573 236.614 66.84C236.614 66.2213 236.78 65.672 237.11 65.192C237.452 64.712 237.937 64.3333 238.566 64.056C239.206 63.7787 239.948 63.64 240.79 63.64C241.665 63.64 242.422 63.7947 243.062 64.104C243.702 64.4133 244.188 64.8027 244.518 65.272C244.86 65.7307 245.041 66.1893 245.062 66.648C245.062 66.744 245.03 66.824 244.966 66.888C244.902 66.952 244.822 66.984 244.726 66.984H243.238C243.014 66.984 242.86 66.8827 242.774 66.68C242.71 66.3387 242.497 66.056 242.134 65.832C241.772 65.5973 241.324 65.48 240.79 65.48C240.193 65.48 239.724 65.592 239.382 65.816C239.041 66.04 238.87 66.3653 238.87 66.792C238.87 67.0907 238.956 67.336 239.126 67.528C239.297 67.72 239.564 67.8907 239.926 68.04C240.3 68.1893 240.833 68.3547 241.526 68.536C242.465 68.7493 243.212 68.9893 243.766 69.256C244.332 69.5227 244.748 69.8587 245.014 70.264C245.281 70.6693 245.414 71.1867 245.414 71.816C245.414 72.4987 245.222 73.096 244.838 73.608C244.465 74.1093 243.932 74.4933 243.238 74.76C242.556 75.0267 241.766 75.16 240.87 75.16Z" fill="#0248AC"/>
<path d="M112.632 75C112.525 75 112.435 74.9627 112.36 74.888C112.285 74.8133 112.248 74.7227 112.248 74.616V64.2C112.248 64.0827 112.28 63.9867 112.344 63.912C112.419 63.8373 112.515 63.8 112.632 63.8H116.776C118.077 63.8 119.096 64.104 119.832 64.712C120.579 65.32 120.952 66.184 120.952 67.304C120.952 68.0827 120.76 68.7387 120.376 69.272C120.003 69.7947 119.48 70.1733 118.808 70.408L121.144 74.488C121.176 74.552 121.192 74.6107 121.192 74.664C121.192 74.76 121.155 74.84 121.08 74.904C121.016 74.968 120.941 75 120.856 75H119.4C119.229 75 119.096 74.9627 119 74.888C118.915 74.8133 118.835 74.7067 118.76 74.568L116.696 70.776H114.472V74.616C114.472 74.7227 114.435 74.8133 114.36 74.888C114.296 74.9627 114.205 75 114.088 75H112.632ZM116.728 68.968C117.368 68.968 117.848 68.824 118.168 68.536C118.499 68.248 118.664 67.832 118.664 67.288C118.664 66.744 118.499 66.3227 118.168 66.024C117.848 65.7253 117.368 65.576 116.728 65.576H114.472V68.968H116.728ZM131.382 75.16C130.432 75.16 129.616 75.016 128.934 74.728C128.251 74.44 127.734 74.0613 127.382 73.592C127.03 73.1227 126.843 72.616 126.822 72.072C126.822 71.976 126.854 71.896 126.918 71.832C126.982 71.768 127.062 71.736 127.158 71.736H128.582C128.71 71.736 128.806 71.7627 128.87 71.816C128.944 71.8587 129.014 71.9333 129.078 72.04C129.184 72.4027 129.43 72.7067 129.814 72.952C130.198 73.1973 130.72 73.32 131.382 73.32C132.139 73.32 132.71 73.1973 133.094 72.952C133.478 72.696 133.67 72.344 133.67 71.896C133.67 71.5973 133.568 71.352 133.366 71.16C133.174 70.968 132.88 70.8027 132.486 70.664C132.102 70.5253 131.526 70.3547 130.758 70.152C129.499 69.8533 128.576 69.4587 127.99 68.968C127.414 68.4667 127.126 67.7573 127.126 66.84C127.126 66.2213 127.291 65.672 127.622 65.192C127.963 64.712 128.448 64.3333 129.078 64.056C129.718 63.7787 130.459 63.64 131.302 63.64C132.176 63.64 132.934 63.7947 133.574 64.104C134.214 64.4133 134.699 64.8027 135.03 65.272C135.371 65.7307 135.552 66.1893 135.574 66.648C135.574 66.744 135.542 66.824 135.478 66.888C135.414 66.952 135.334 66.984 135.238 66.984H133.75C133.526 66.984 133.371 66.8827 133.286 66.68C133.222 66.3387 133.008 66.056 132.646 65.832C132.283 65.5973 131.835 65.48 131.302 65.48C130.704 65.48 130.235 65.592 129.894 65.816C129.552 66.04 129.382 66.3653 129.382 66.792C129.382 67.0907 129.467 67.336 129.638 67.528C129.808 67.72 130.075 67.8907 130.438 68.04C130.811 68.1893 131.344 68.3547 132.038 68.536C132.976 68.7493 133.723 68.9893 134.278 69.256C134.843 69.5227 135.259 69.8587 135.526 70.264C135.792 70.6693 135.926 71.1867 135.926 71.816C135.926 72.4987 135.734 73.096 135.35 73.608C134.976 74.1093 134.443 74.4933 133.75 74.76C133.067 75.0267 132.278 75.16 131.382 75.16ZM146.559 75.16C145.087 75.16 143.946 74.7813 143.135 74.024C142.335 73.2667 141.909 72.2 141.855 70.824C141.845 70.536 141.839 70.0667 141.839 69.416C141.839 68.7547 141.845 68.2747 141.855 67.976C141.909 66.6107 142.341 65.5493 143.151 64.792C143.973 64.024 145.109 63.64 146.559 63.64C147.509 63.64 148.335 63.8053 149.039 64.136C149.743 64.456 150.287 64.8987 150.671 65.464C151.055 66.0187 151.258 66.648 151.279 67.352V67.384C151.279 67.4693 151.242 67.544 151.167 67.608C151.103 67.6613 151.029 67.688 150.943 67.688H149.423C149.295 67.688 149.199 67.6613 149.135 67.608C149.071 67.5547 149.018 67.4533 148.975 67.304C148.805 66.632 148.522 66.1627 148.127 65.896C147.733 65.6187 147.205 65.48 146.543 65.48C145.007 65.48 144.207 66.3387 144.143 68.056C144.133 68.344 144.127 68.7867 144.127 69.384C144.127 69.9813 144.133 70.4347 144.143 70.744C144.207 72.4613 145.007 73.32 146.543 73.32C147.205 73.32 147.733 73.1813 148.127 72.904C148.533 72.6267 148.815 72.1573 148.975 71.496C149.007 71.3467 149.055 71.2453 149.119 71.192C149.194 71.1387 149.295 71.112 149.423 71.112H150.943C151.039 71.112 151.119 71.144 151.183 71.208C151.258 71.272 151.29 71.352 151.279 71.448C151.258 72.152 151.055 72.7867 150.671 73.352C150.287 73.9067 149.743 74.3493 149.039 74.68C148.335 75 147.509 75.16 146.559 75.16Z" fill="#FF7B00"/>
<g filter="url(#filter1_d_215_1073)">
<path d="M24.5875 70.9406C25.5407 69.6915 26.5001 68.7096 27.8338 67.9737C29.5077 67.0503 31.3058 66.7521 33.1909 66.8166C34.4519 66.8596 34.8431 66.418 35.0985 65.5732C35.3977 64.5833 35.635 62.3826 34.9937 60.7213C34.8643 60.3863 34.7375 60.0503 34.5967 59.681C39.2856 60.6885 49.4888 74.0152 50.2163 80.1736C49.4861 79.4774 48.8171 78.7097 48.0519 78.0544C43.8053 74.4166 39.0275 71.8728 33.4057 71.1817C30.6632 70.8445 27.4142 71.2803 25.2663 71.8058C24.422 71.9735 25.0188 71.8554 24 72.0603C24.2081 71.4914 24.213 71.4337 24.5875 70.9406Z" fill="#0248AC"/>
<path d="M50.7947 52.817C50.4887 54.0744 49.9465 55.3048 49.9427 56.5369C49.9357 58.7629 50.1751 60.9991 50.4493 63.2141C50.817 66.1841 51.4001 69.1286 51.7313 72.1018C52.0004 74.5181 51.6804 76.9309 51.1113 79.3362C50.0602 74.9367 48.3322 70.8562 45.7567 67.1387C43.1997 63.4479 40.0819 60.2983 36.454 57.4393C37.6518 56.936 38.739 57.1037 39.8061 57.2022C41.8243 57.3884 43.5973 58.2634 45.3349 59.2371C46.4331 59.8525 46.4855 59.8103 46.6808 58.5942C47.0482 56.3078 48.817 53.8282 50.7947 52.817Z" fill="#FF7B00"/>
<path d="M61.9716 35.447C60.2598 38.727 57.6156 40.5278 53.8384 40.5121C50.2148 40.497 47.7208 36.7842 48.9417 33.2169C50.0018 30.1193 52.0401 27.6939 54.2993 25.4259C55.2002 24.5218 56.1862 23.7019 57.0791 22.7904C58.8904 20.9414 59.4842 18.7576 58.7454 16.2461C58.725 16.1768 58.7348 16.0985 58.7295 16.0067C64.6363 20.7167 64.7979 28.0894 60.2484 33.7265C60.6644 32.2105 60.8501 30.8106 60.4169 29.4065C60.2717 28.9354 60.115 28.4594 59.8911 28.0227C59.0517 26.3851 57.4291 25.8605 55.795 26.7018C52.795 28.2462 51.3748 30.9051 51.1359 34.0916C50.8738 37.588 54.2084 40.0076 58.065 38.5237C59.6665 37.9075 60.8374 36.7023 61.9716 35.447Z" fill="#0248AC"/>
<path d="M52.748 79.252C53.404 78.1501 53.8908 77.4244 54.6985 76.4371C57.4861 73.0296 61.0257 70.5764 64.9432 68.6414C66.5299 67.8577 68.1341 67.1081 69.7457 66.3769C70.2705 66.1386 70.3707 65.9 70.0983 65.3674C68.6175 62.4708 67.1692 59.5573 65.7178 56.6457C65.6109 56.4312 65.4972 56.282 65.3505 56.1642C65.2339 56.0704 65.0644 56.0088 64.833 56.02C64.7838 56.0225 64.7013 56.0204 64.4848 56.0736C64.3872 56.0975 61.4115 57.026 61.4115 57.026C61.3299 56.9417 61.2992 56.8907 61.1663 56.7196C61.1663 56.7196 63.8049 55.3711 64.0382 55.2694C64.6894 54.9857 65.3169 54.6676 65.9974 54.601C66.2092 54.5801 66.6106 54.9181 66.7548 55.1856C67.7175 56.972 68.6422 58.779 69.5635 60.5874C70.4851 62.3967 71.3751 64.222 72.3076 66.0257C72.5899 66.5716 72.5405 66.8244 71.9041 67.0359C68.6094 68.1311 65.4375 69.5117 62.4196 71.2381C58.8441 73.2836 58.0411 73.5844 53.9583 77.9807" fill="#FF7B00"/>
<path d="M58.9169 54.8246C59.5809 54.4481 60.0773 54.2843 60.3071 54.2843C60.5063 54.2843 60.7385 54.3512 60.8628 54.5804C61.6928 56.1122 62.497 57.6647 63.2989 59.2186C64.1012 60.7732 64.8818 62.3443 65.6916 63.893C65.9365 64.3619 65.9206 64.5902 65.4797 64.8184C63.1967 65.9995 61.024 67.4275 58.9886 69.1541C56.5774 71.1995 54.6281 73.7943 53.0131 76.7916C52.9111 76.981 52.277 78.2584 52.1007 78.9204C52.0574 78.8901 52.3969 77.5519 52.5246 77.1997C52.6471 76.8473 53.338 75.1982 53.8421 74.2681C55.5818 71.058 57.9359 68.6514 60.6015 66.683C61.6811 65.8858 62.7759 65.1177 63.8776 64.3656C64.2363 64.1208 64.2898 63.9019 64.053 63.4443C62.7648 60.9556 61.4986 58.4499 60.2303 55.9461C60.0669 55.6234 59.9351 55.4103 59.5579 55.5202C59.3761 55.5733 54.9758 57.1487 53.6123 58.4967C54.7306 57.164 58.5453 54.9889 58.9169 54.8246Z" fill="#FF7B00"/>
<path d="M56.7107 52.4798C55.0884 50.5783 53.4922 48.653 51.8269 46.7896C49.4787 44.1618 47.1439 41.5322 45.4332 38.4187C43.8278 35.4971 44.1771 31.974 46.5385 29.6003C47.9822 28.149 49.661 26.9314 51.2378 25.6131C51.3252 25.54 51.4459 25.5068 51.4112 25.524C50.5212 26.4654 49.4883 27.454 48.5771 28.5441C46.7767 30.6977 45.9073 33.205 46.6065 35.9646C46.9412 37.2861 47.7476 38.524 48.502 39.6957C50.0065 42.0329 52.0575 43.888 54.0044 45.8657C56.0289 47.9223 57.8411 50.0394 58.1304 50.5921C59.877 53.4411 59.5513 59.8635 59.4379 59.3129C58.3434 54.0028 57.8198 54.1451 56.7107 52.4798Z" fill="#0248AC"/>
<path d="M72.9319 74.319C72.1886 76.6665 72.2244 76.7938 74.2551 78.4242C66.9842 77.7549 60.5109 78.4615 53.4432 80.7285C56.8851 78.339 68.4824 73.6291 72.9319 74.319Z" fill="#0248AC"/>
<path d="M68.957 57.9781C68.533 58.0705 67.3151 58.553 67.0559 58.5021C66.8669 58.4647 66.5645 57.6756 66.6474 57.6441C66.7512 57.6049 69.4767 56.5198 69.691 56.4341C70.4059 56.1482 70.6 56.3251 71.5153 57.5045C72.2035 58.4254 76.9641 66.9767 77.5348 67.8917C77.9512 68.9223 78.6034 69.4238 76.7995 69.7707C72.693 70.8026 66.3942 72.636 62.3298 74.4695C58.4865 76.2032 55.8277 78.3447 54.1156 79.5242C53.8303 79.7204 53.7377 79.8114 53.3765 80.0413C55.8907 77.7413 58.2626 75.599 61.3161 73.7942C65.0746 71.5727 69.3381 70.1443 73.5758 68.7779C73.8933 68.6754 74.2053 68.559 74.5124 68.4324C75.676 67.953 75.4922 67.6058 75.1044 66.8037C74.995 66.6586 70.4898 58.5615 70.3255 58.3418C69.903 57.7769 69.8033 57.7693 68.957 57.9781Z" fill="#FF7B00"/>
<path d="M58.3415 32.7713C58.1781 34.1122 57.5822 35.5232 56.1374 36.4037C54.6458 37.3126 53.266 36.5408 53.2123 34.8022C53.1622 33.1809 53.8497 31.8803 55.0742 30.8596C55.7209 30.3203 56.4586 30.0024 57.3069 30.3714C57.9867 30.6671 58.3581 31.4656 58.3415 32.7713Z" fill="#FF7B00"/>
<path d="M56.1456 43.5291C59.7566 42.5966 62.0803 40.3609 63.922 37.5317C65.8123 34.6279 66.294 31.4691 65.5824 28.1032C67.2302 31.4298 66.4214 34.7215 65.0787 37.8308C63.5147 41.4518 59.6758 43.782 56.1456 43.5291Z" fill="#0248AC"/>
<path d="M47.0723 53.5994C47.0723 55.3365 45.6637 56.7449 43.9263 56.7449C42.1888 56.7449 40.7804 55.3365 40.7804 53.5994C40.7804 51.8621 42.1888 50.4538 43.9263 50.4538C45.6637 50.4538 47.0723 51.8621 47.0723 53.5994Z" fill="#FF7B00"/>
<path d="M33.6419 61.9855C33.6419 64.0176 31.9943 65.665 29.9617 65.665C27.9292 65.665 26.2816 64.0176 26.2816 61.9855C26.2816 59.9532 27.9292 58.3058 29.9617 58.3058C31.9943 58.3058 33.6419 59.9532 33.6419 61.9855Z" fill="#0248AC"/>
<path d="M30.5224 74.3185C31.2657 76.666 31.2299 76.7933 29.1992 78.4237C36.4701 77.7545 42.9434 78.461 50.0111 80.728C46.5692 78.3385 34.9719 73.6286 30.5224 74.3185Z" fill="#0248AC"/>
</g>
<defs>
<filter id="filter0_d_215_1073" x="11" y="7" width="84" height="84" filterUnits="userSpaceOnUse" color-interpolation-filters="sRGB">
<feFlood flood-opacity="0" result="BackgroundImageFix"/>
<feColorMatrix in="SourceAlpha" type="matrix" values="0 0 0 0 0 0 0 0 0 0 0 0 0 0 0 0 0 0 127 0" result="hardAlpha"/>
<feOffset dx="2" dy="1"/>
<feGaussianBlur stdDeviation="1"/>
<feComposite in2="hardAlpha" operator="out"/>
<feColorMatrix type="matrix" values="0 0 0 0 0 0 0 0 0 0 0 0 0 0 0 0 0 0 0.05 0"/>
<feBlend mode="normal" in2="BackgroundImageFix" result="effect1_dropShadow_215_1073"/>
<feBlend mode="normal" in="SourceGraphic" in2="effect1_dropShadow_215_1073" result="shape"/>
</filter>
<filter id="filter1_d_215_1073" x="20" y="16.0066" width="62" height="72.7219" filterUnits="userSpaceOnUse" color-interpolation-filters="sRGB">
<feFlood flood-opacity="0" result="BackgroundImageFix"/>
<feColorMatrix in="SourceAlpha" type="matrix" values="0 0 0 0 0 0 0 0 0 0 0 0 0 0 0 0 0 0 127 0" result="hardAlpha"/>
<feOffset dy="4"/>
<feGaussianBlur stdDeviation="2"/>
<feColorMatrix type="matrix" values="0 0 0 0 0 0 0 0 0 0 0 0 0 0 0 0 0 0 0.1 0"/>
<feBlend mode="normal" in2="BackgroundImageFix" result="effect1_dropShadow_215_1073"/>
<feBlend mode="normal" in="SourceGraphic" in2="effect1_dropShadow_215_1073" result="shape"/>
</filter>
</defs>
</svg>
